HIERARCHY
ROOT Hips
{
	OFFSET 55.310501 45.591206 43.872097
	CHANNELS 6 Xposition Yposition Zposition Zrotation Xrotation Yrotation
	JOINT Chest
	{
		OFFSET -0.153500 1.163101 7.852402
		CHANNELS 6 Xposition Yposition Zposition Zrotation Xrotation Yrotation
		JOINT Chest2
		{
			OFFSET 0.000000 0.000000 3.343300
			CHANNELS 6 Xposition Yposition Zposition Zrotation Xrotation Yrotation
			JOINT Neck
			{
				OFFSET 0.000000 0.000000 7.785500
				CHANNELS 6 Xposition Yposition Zposition Zrotation Xrotation Yrotation
				JOINT Head
				{
					OFFSET 0.000000 0.000000 2.173901
					CHANNELS 6 Xposition Yposition Zposition Zrotation Xrotation Yrotation
					End Site
					{
						OFFSET 0.000000 0.000000 10.528198
					}
				}
			}
			JOINT LeftCollar
			{
				OFFSET 2.676300 -1.652401 4.938301
				CHANNELS 6 Xposition Yposition Zposition Zrotation Xrotation Yrotation
				JOINT LeftShoulder
				{
					OFFSET 4.299000 0.000000 0.000000
					CHANNELS 6 Xposition Yposition Zposition Zrotation Xrotation Yrotation
					JOINT LeftElbow
					{
						OFFSET 0.000000 0.000000 -10.245102
						CHANNELS 6 Xposition Yposition Zposition Zrotation Xrotation Yrotation
						JOINT LeftWrist
						{
							OFFSET 0.000000 0.000000 -12.703300
							CHANNELS 6 Xposition Yposition Zposition Zrotation Xrotation Yrotation
							End Site
							{
								OFFSET 0.000000 0.000000 -2.173901
							}
						}
					}
				}
			}
			JOINT RightCollar
			{
				OFFSET -2.534599 -1.686401 5.195000
				CHANNELS 6 Xposition Yposition Zposition Zrotation Xrotation Yrotation
				JOINT RightShoulder
				{
					OFFSET -4.144100 0.000000 0.000000
					CHANNELS 6 Xposition Yposition Zposition Zrotation Xrotation Yrotation
					JOINT RightElbow
					{
						OFFSET 0.000000 0.000000 -10.116501
						CHANNELS 6 Xposition Yposition Zposition Zrotation Xrotation Yrotation
						JOINT RightWrist
						{
							OFFSET 0.000000 0.000000 -12.937801
							CHANNELS 6 Xposition Yposition Zposition Zrotation Xrotation Yrotation
							End Site
							{
								OFFSET 0.000000 0.000000 -2.173901
							}
						}
					}
				}
			}
		}
	}
	JOINT LeftHip
	{
		OFFSET 2.175598 0.064499 -2.662899
		CHANNELS 6 Xposition Yposition Zposition Zrotation Xrotation Yrotation
		JOINT LeftKnee
		{
			OFFSET 0.000000 -0.000004 -18.585800
			CHANNELS 6 Xposition Yposition Zposition Zrotation Xrotation Yrotation
			JOINT LeftAnkle
			{
				OFFSET 0.000000 0.000000 -18.979500
				CHANNELS 6 Xposition Yposition Zposition Zrotation Xrotation Yrotation
				End Site
				{
					OFFSET 0.000000 -9.264000 0.000000
				}
			}
		}
	}
	JOINT RightHip
	{
		OFFSET -2.092400 -0.058102 -2.581200
		CHANNELS 6 Xposition Yposition Zposition Zrotation Xrotation Yrotation
		JOINT RightKnee
		{
			OFFSET 0.000000 -0.000004 -18.665001
			CHANNELS 6 Xposition Yposition Zposition Zrotation Xrotation Yrotation
			JOINT RightAnkle
			{
				OFFSET 0.000000 0.000000 -18.566601
				CHANNELS 6 Xposition Yposition Zposition Zrotation Xrotation Yrotation
				End Site
				{
					OFFSET 0.000000 -8.497601 0.000000
				}
			}
		}
	}
}
MOTION
Frames: 4
Frame Time: 0.041667
61.093204 60.083202 36.254196 1155.566374 10.773636 -16.390543 -0.153498 1.163099 7.852396 33.036911 18.824857 -12.027815 -0.000002 0.000006 3.343292 -6.396875 -9.123649 -0.004749 -0.000004 0.000011 7.785493 -37.103411 -12.290910 21.952231 0.000004 0.000004 2.173920 -6.943359 -5.906626 -7.891751 2.676292 -1.652392 4.938293 9.202328 5.715603 2.046388 4.298994 0.000013 -0.000004 -10.614437 38.186771 -46.767320 -0.000007 0.000006 -10.245110 -23.611612 704.966337 4.783103 -0.000010 0.000003 -12.703306 1275.520561 -175.183601 584.292084 -2.534603 -1.686397 5.194999 12.095994 11.755731 -5.352360 -4.144102 0.000010 -0.000003 -20.406090 27.863869 81.613637 -0.000005 -0.000002 -10.116486 -41.466341 -17.703639 -24.998952 0.000004 0.000001 -12.937809 -314.130864 -394.142323 -32.821938 2.175598 0.064489 -2.662895 -661.079366 -35.865928 54.424597 -0.000011 -0.000011 -18.585800 61.411153 -222.439454 -100.807732 -0.000004 -0.000013 -18.979519 774.724862 -5.108993 -119.232181 -2.092395 -0.058101 -2.581196 214.323427 -9.670472 -75.893784 0.000001 0.000001 -18.665007 -1233.884274 9.886262 -109.057316 0.000001 -0.000008 -18.566605 1029.952966 2.154509 -42.537752
61.400108 60.013805 36.281990 1155.325405 10.980763 -16.596825 -0.153496 1.163115 7.852398 31.670535 19.129847 -11.776737 0.000012 -0.000005 3.343300 -6.083220 -9.270985 -0.021187 -0.000015 0.000001 7.785506 -36.156177 -12.588097 21.759914 0.000001 0.000001 2.173903 -6.826550 -6.143011 -7.521902 2.676292 -1.652395 4.938301 8.870618 5.628323 2.471024 4.298994 0.000019 -0.000013 -11.347615 38.308864 -45.383786 -0.000018 0.000002 -10.245099 -21.126670 703.272668 5.708333 0.000001 -0.000001 -12.703305 1275.590939 -173.780872 586.093506 -2.534600 -1.686396 5.195001 11.580114 11.583713 -5.129773 -4.144093 0.000011 0.000006 -21.225018 28.640972 81.120729 0.000000 -0.000004 -10.116497 -44.849857 -17.717253 -27.859797 0.000002 0.000003 -12.937801 -313.516174 -395.335147 -35.091658 2.175591 0.064498 -2.662905 -661.611902 -36.021987 53.961814 -0.000005 -0.000012 -18.585804 62.075191 -222.430848 -100.623597 0.000007 -0.000003 -18.979515 774.879060 -5.495196 -118.704508 -2.092396 -0.058093 -2.581197 216.020428 -11.013126 -78.890577 0.000001 0.000003 -18.665001 -1238.033641 11.254161 -110.499634 0.000005 -0.000008 -18.566593 1031.894598 1.602085 -39.514157
61.709003 59.913708 36.308697 1155.058208 11.041624 -16.789016 -0.153497 1.163099 7.852400 30.331395 19.371598 -11.577423 0.000004 0.000006 3.343303 -5.792561 -9.391741 -0.019018 0.000004 0.000009 7.785505 -35.335547 -12.878185 21.685945 0.000003 0.000005 2.173913 -6.537904 -6.358986 -7.231237 2.676285 -1.652394 4.938305 8.577268 5.542329 2.931457 4.298992 0.000006 -0.000004 -11.908740 38.240501 -44.387443 -0.000003 0.000009 -10.245101 -18.838804 701.613205 6.595950 -0.000008 0.000006 -12.703300 1276.371220 -172.990250 588.080271 -2.534607 -1.686406 5.195001 12.196199 10.956244 -5.402326 -4.144097 0.000013 0.000003 -23.197418 29.667760 81.023317 0.000009 0.000004 -10.116499 -46.040789 -18.614186 -29.983759 0.000006 -0.000002 -12.937798 -317.409682 -396.637309 -38.167910 2.175598 0.064487 -2.662899 -662.165858 -36.110305 53.248916 -0.000004 -0.000013 -18.585800 62.707174 -222.242444 -100.388570 0.000002 -0.000011 -18.979517 775.023696 -5.924424 -118.233197 -2.092392 -0.058110 -2.581196 217.270558 -12.097588 -81.618042 0.000005 -0.000003 -18.665001 -1241.776913 12.311664 -111.341058 0.000003 -0.000009 -18.566610 1033.053107 0.975482 -36.237941
62.020908 59.784813 36.338902 1154.831555 10.973475 -17.025377 -0.153503 1.163101 7.852407 28.959449 19.563253 -11.335326 -0.000003 -0.000005 3.343296 -5.489630 -9.497953 -0.016610 0.000000 0.000008 7.785505 -34.430881 -13.024859 21.664634 -0.000003 0.000004 2.173911 -6.362665 -6.510438 -6.901602 2.676287 -1.652400 4.938305 8.272998 5.451780 3.471684 4.298995 0.000017 -0.000002 -12.144097 38.483912 -43.884560 0.000001 0.000006 -10.245104 -16.868805 699.536118 7.280517 0.000013 0.000002 -12.703300 1278.082046 -172.214832 590.063321 -2.534605 -1.686392 5.195006 11.864956 10.869192 -5.279512 -4.144107 0.000000 -0.000002 -23.809570 30.440900 80.480187 0.000019 -0.000002 -10.116505 -47.087283 -19.504343 -32.157593 0.000004 0.000003 -12.937803 -321.699779 -397.786584 -41.184494 2.175587 0.064508 -2.662897 -662.736752 -36.067152 52.392107 -0.000008 -0.000009 -18.585802 63.255994 -221.902191 -100.104933 0.000007 -0.000000 -18.979511 775.188331 -6.388904 -117.819001 -2.092402 -0.058088 -2.581194 218.125889 -13.024530 -84.070784 0.000008 -0.000001 -18.665001 -1245.229710 13.271672 -111.628534 -0.000004 -0.000007 -18.566605 1033.742027 -1.216144 -37.583447
